<svg xmlns="http://www.w3.org/2000/svg" width="57.932" height="57.933" viewBox="0 0 57.932 57.933">
  <g id="Icon_feather-settings" data-name="Icon feather-settings" transform="translate(-111.068 -105.984)">
    <path id="Path_173" data-name="Path 173" d="M147.388,134.951a7.354,7.354,0,1,1-7.354-7.355A7.354,7.354,0,0,1,147.388,134.951Z" fill="none" stroke="#777a95" stroke-linecap="round" stroke-linejoin="round" stroke-width="4"/>
    <path id="Path_174" data-name="Path 174" d="M158.175,142.3a4.047,4.047,0,0,0,.807,4.462l.147.147a4.906,4.906,0,1,1-6.936,6.939h0l-.147-.147a4.079,4.079,0,0,0-6.913,2.893v.415a4.9,4.9,0,1,1-9.806,0v-.223a4.245,4.245,0,0,0-7.109-2.892l-.147.147a4.9,4.9,0,0,1-6.936-6.936l.147-.147a4.079,4.079,0,0,0-2.893-6.913h-.418a4.9,4.9,0,1,1,0-9.806h.219a4.244,4.244,0,0,0,2.892-7.11l-.143-.147a4.9,4.9,0,0,1,6.936-6.936l.147.147a4.045,4.045,0,0,0,4.461.808h.2a4.045,4.045,0,0,0,2.452-3.7v-.419a4.9,4.9,0,0,1,9.806,0v.223A4.079,4.079,0,0,0,151.85,116l.147-.147a4.9,4.9,0,0,1,6.936,6.936l-.147.147a4.047,4.047,0,0,0-.807,4.462v.2a4.043,4.043,0,0,0,3.7,2.452h.418a4.9,4.9,0,1,1,0,9.8h-.222A4.047,4.047,0,0,0,158.175,142.3Z" fill="none" stroke="#777a95" stroke-linecap="round" stroke-linejoin="round" stroke-width="4"/>
  </g>
</svg>
